<?xml version="1.0" encoding="utf-8"?>
<!-- Svg Vector Icons : http://www.onlinewebfonts.com/icon -->
<!DOCTYPE svg PUBLIC "-//W3C//DTD SVG 1.1//EN" "http://www.w3.org/Graphics/SVG/1.1/DTD/svg11.dtd">
<svg version="1.1" xmlns="http://www.w3.org/2000/svg" xmlns:xlink="http://www.w3.org/1999/xlink" x="0px" y="0px" viewBox="0 0 1000 1000" enable-background="new 0 0 1000 1000" xml:space="preserve">
<metadata> Svg Vector Icons : http://www.onlinewebfonts.com/icon </metadata>
<g><path d="M720.5,148.4c96.2,0,171.6,75.3,171.6,171.6c0,141.4-153,280.3-384.6,490.8l-2.1,1.8l-5.2,4.7l-6.5-6C261.4,600.6,108,461.4,108,319.8c0-96.2,75.3-171.6,171.6-171.6c54.3,0,110.1,26.1,145.8,68l74.6,87.6l74.6-87.6C610.4,174.4,666.2,148.4,720.5,148.4 M720.5,50.4c-85.2,0-167.1,39.7-220.5,102.4C446.6,90.2,364.7,50.4,279.5,50.4C128.6,50.4,10,169,10,319.9c0,185.2,166.6,336.1,418.9,565l71.1,64.7l71.1-64.2C823.4,656.1,990,505.2,990,319.9C990,169,871.4,50.4,720.5,50.4L720.5,50.4z"/></g>
</svg>